<?xml version="1.0" encoding="utf-8"?>
<!-- Generator: Adobe Illustrator 15.0.2, SVG Export Plug-In . SVG Version: 6.00 Build 0)  -->
<!DOCTYPE svg PUBLIC "-//W3C//DTD SVG 1.1//EN" "http://www.w3.org/Graphics/SVG/1.1/DTD/svg11.dtd">
<svg version="1.1" id="Layer-3" xmlns="http://www.w3.org/2000/svg" xmlns:xlink="http://www.w3.org/1999/xlink" x="0px" y="0px"
	 width="959.894px" height="69.608px" viewBox="0 0 959.894 69.608" enable-background="new 0 0 959.894 69.608"
	 xml:space="preserve">
<g>
	<path fill-rule="evenodd" clip-rule="evenodd" fill="#FFFFFF" d="M713.377,29.148c0,4.943-0.244,25.12-0.244,26.659
		c0,1.053-0.486,2.188-3.484,2.188h-3.889c-0.486,0-0.567,0.162-0.567,0.567v2.026c0,0.405,0.081,0.567,0.647,0.567
		c1.054,0,3.971-0.243,10.373-0.243c8.67,0,30.298,0.081,32.404,0.243c0.486-2.188,3.728-15.558,3.971-16.125
		c0.081-0.486,0.081-0.567-0.162-0.729l-1.297-0.486c-0.324-0.162-0.486,0-0.648,0.324c-1.134,3.16-5.996,12.884-10.776,13.613
		c-2.512,0.324-16.848,0.162-18.63,0c-0.243-3.322-0.243-20.825-0.243-22.203v-6.968c0-5.672,0.243-17.908,0.243-18.961
		c0-2.35,0.324-3.16,2.836-3.16h4.861c0.648,0,0.811-0.243,0.811-0.648V3.948c0-0.405-0.08-0.648-0.729-0.648
		c-0.729,0-4.132,0.243-11.992,0.243c-6.725,0-9.642-0.243-10.533-0.243c-0.487,0-0.567,0.162-0.567,0.567v1.783
		c0,0.405,0.08,0.811,0.567,0.811h3.809c2.43,0,2.835,0.81,2.997,2.917c0.082,1.458,0.244,10.048,0.244,15.233V29.148z"/>
	<path fill-rule="evenodd" clip-rule="evenodd" fill="#FFFFFF" d="M767.231,31.02c0-0.621,0.089-11.18,0.089-12.067
		c0.089-1.863,0.888-2.218,3.283-2.218h1.508c0.444,0,0.532-0.266,0.532-0.621v-2.129c0-0.266-0.177-0.443-0.532-0.443
		c-0.71,0-5.234,0.266-7.808,0.266c-4.171,0.088-9.672-0.267-10.204-0.267c-0.355,0-0.532,0.178-0.532,0.533v2.041
		c0,0.355,0.089,0.621,0.532,0.621h1.597c3.727,0,4.525,0.888,4.525,1.863c0,1.243,0.178,10.115,0.178,11.535v3.904
		c0,3.017-0.089,14.286-0.178,15.084c-0.178,1.597-1.597,1.686-3.814,1.686h-1.953c-0.354,0-0.531,0.266-0.531,0.532v1.952
		c0,0.444,0.177,0.71,0.531,0.71c0.532,0,5.679-0.266,8.696-0.266c3.993,0,8.606,0.266,9.316,0.266c0.443,0,0.532-0.266,0.532-0.621
		V51.25c0-0.266-0.089-0.444-0.532-0.444h-1.331c-2.573,0-3.638-1.242-3.815-3.283c-0.089-1.331-0.089-11.535-0.089-12.067V31.02z"
		/>
	<path fill-rule="evenodd" clip-rule="evenodd" fill="#FFFFFF" d="M941.616,35.723c2.041-3.105,12.334-17.568,13.664-18.278
		c0.799-0.444,1.775-0.71,3.194-0.71h0.888c0.354,0,0.532-0.177,0.532-0.621V14.25c0-0.532-0.178-0.709-0.621-0.709
		c-0.532,0-3.638,0.266-5.235,0.266c-2.662,0-7.098-0.267-7.631-0.267c-0.443,0-0.621,0.267-0.621,0.622v1.952
		c0,0.355,0.178,0.621,0.621,0.621h1.42c1.952,0,1.863,1.154,1.153,2.573c-0.354,0.71-7.72,11.446-9.05,13.665
		c-1.42-2.13-8.785-13.931-9.316-14.729c-0.355-0.533-0.267-1.509,1.33-1.509h1.331c0.532,0,0.621-0.266,0.621-0.621v-1.952
		c0-0.444-0.267-0.621-0.621-0.621c-0.621,0-6.655,0.266-8.606,0.266c-2.13,0-6.744-0.267-7.275-0.267
		c-0.533,0-0.711,0.267-0.711,0.533v1.952c0,0.532,0.178,0.709,0.621,0.709h1.242c0.711,0,2.308,0.178,3.195,1.065
		c1.419,1.331,12.244,17.213,13.043,18.811v3.194c0,5.235,0,8.429-0.089,9.228c-0.089,1.242-0.621,1.774-3.46,1.774h-1.332
		c-0.354,0-0.531,0.266-0.531,0.532v1.952c0,0.533,0.177,0.71,0.62,0.71c0.532,0,5.679-0.266,7.631-0.266
		c2.929,0,7.897,0.266,8.43,0.266s0.71-0.266,0.71-0.621V51.25c0-0.266-0.178-0.444-0.621-0.444h-1.154
		c-1.597,0-3.017-0.089-3.193-1.952c-0.178-1.064-0.089-3.46-0.178-5.679V35.723z"/>
	<path fill-rule="evenodd" clip-rule="evenodd" fill="#FFFFFF" d="M556.864,16.327c0.627-0.65,1.801-0.54,1.44-1.98h1.8l0.9,12.06
		l-2.52,0.18c-3.362-7.818-4.861-10.98-13.141-10.892c-7.025-0.731-14.491,7.365-15.48,15.932c-0.834,7.235,4.32,15.12,4.32,15.12
		c6.12,7.56,15.48,6.66,19.801,2.52l0.18-6.84l-1.801-2.16l-5.399-0.18c0-1.08,0.18-1.26,0.18-2.52l18.181,0.18v2.7
		c-1.75-0.296-2.34-0.36-4.32-0.18c0.18,4.5-0.18,11.7-0.18,11.7c-7.021,3.42-22.681,6.84-32.221-2.52
		c-3.033-2.977-6.047-6.885-5.76-15.48c0.359-10.8,6.12-18.72,14.656-20.534C537.5,13.434,553.454,11.739,556.864,16.327z"/>
	<path fill-rule="evenodd" clip-rule="evenodd" fill="#FFFFFF" d="M464.398,13.588h18.613v2.775
		c-2.193,0.097-4.267-0.756-5.721,0.272v34.07c0.553,0.293-0.166,0.182,1.273,0.902c0.806,0.402,3.96,0.087,4.446,0.14v2.776
		h-18.612V51.72h4.041c0.9-0.025,1.571-0.359,2.205-0.652c0,0,0.541-31.14,0-34.02c-1.8-1.44-6.246-0.665-6.246-0.665V13.588z"/>
	<path fill-rule="evenodd" clip-rule="evenodd" fill="#FFFFFF" d="M565.917,13.588h18.615v2.775
		c-2.193,0.097-4.268-0.756-5.722,0.272v34.07c0.554,0.293-0.166,0.182,1.274,0.902c0.805,0.402,3.96,0.808,4.445,0.86v2.056
		h-18.611V52.44l4.041-0.72c0.9-0.025,1.57-0.359,2.205-0.652c0,0,0.539-31.14,0-34.02c-1.801-1.44-6.248-0.665-6.248-0.665V13.588z
		"/>
	<path fill-rule="evenodd" clip-rule="evenodd" fill="#FFFFFF" d="M274.823,13.593h18.614v2.775
		c-2.193,0.097-4.267-0.756-5.721,0.271v34.07c0.553,0.294-0.166,0.182,1.274,0.902c0.805,0.402,3.96,0.088,4.446,0.141v2.776
		h-18.612v-2.804h4.041c0.9-0.025,2.291-0.359,2.925-0.653c0,0,0.54-31.14,0-34.02c-1.8-1.44-6.967-0.665-6.967-0.665V13.593z"/>
	<path fill-rule="evenodd" clip-rule="evenodd" fill="#FFFFFF" d="M104.903,13.233h18.614v2.775
		c-2.193,0.097-4.267-0.756-5.721,0.272v34.07c0.553,0.293-0.166,0.182,1.274,0.902c0.805,0.402,3.959,0.088,4.445,0.14v2.776
		h-18.612v-2.804h4.042c0.9-0.024,1.571-0.359,2.205-0.652c0,0,0.54-31.14,0-34.02c-1.8-1.44-6.247-0.665-6.247-0.665V13.233z"/>
	<path fill-rule="evenodd" clip-rule="evenodd" fill="#FFFFFF" d="M0,0h24.374c-0.001,0.779-0.807,1.867-0.308,2.467l-6.593,0.327
		l-2.414,3.162l0,36.201c0.841,8.574,4.327,15.39,15.847,15.39c11.16,0,17.884-6.657,18-14.04l0.121-35.854
		c-0.198-2.222-0.049-3.191-1.806-4.859l-6.903-0.72c0,0-0.053-1.143,0.001-2.073h21.494v2.795h-6.179l-1.694,3.16l-0.63,35.981
		c-1.163,7.689-3.052,11.405-8.723,15.25c-4.65,3.154-8.421,3.225-14.04,3.24c-7.329,0.02-12.24-0.72-18-5.4
		C8.278,51.56,7.905,39.495,7.905,39.495V4.542L6.151,2.787L0,2.778V0z"/>
	<path fill-rule="evenodd" clip-rule="evenodd" fill="#FFFFFF" d="M414.304,5.887L436.21,5.76v2.082l-6.066,0.025l-2.879,1.08
		c-0.415,4.23,11.979,39.377,14.219,45.9c4.32-10.8,12.061-31.5,16.201-42.84c0,0,0.539-2.34-0.541-3.42l-4.985-0.053V5.759h20.054
		l-0.682,2.053l-6.467,0.775c-5.039,1.44-21.774,49.202-25.277,58.287H438.5c-3.675-7.167-12.13-42.078-19.875-57.567
		c-0.72-1.44-4.32-1.08-4.32-1.08V5.887z"/>
	<path fill-rule="evenodd" clip-rule="evenodd" fill="#FFFFFF" d="M499.264,34.688c7.74,1.26,15.301-3.06,14.76-9.54
		c-0.953-11.442-14.76-9-14.76-9V34.688z M488.104,13.627c7.92,0,28.08-2.16,30.78,5.58c0.593,1.699,2.16,6.84,0.72,9.72
		c-1.822,3.644-5.039,5.4-9.18,6.66c3.866,4.414,9,16.56,17.227,16.253v2.785l-11.826-0.319c-3.009-4.784-9.36-20.16-16.92-17.28
		c0,7.262-0.36,11.34,0.18,14.4c0.902,0.872,2,0.971,4.807,1.135v2.053l-16.867,0.051c0,0-0.18,0.18,0-2.52
		c2.881,0,5.041-1.08,5.041-1.08s0.18-27.18,0-33.84c-1.44-1.62-1.08-1.08-3.961-1.08V13.627z"/>
	<path fill-rule="evenodd" clip-rule="evenodd" fill="#FFFFFF" d="M587.644,13.987h12.6c0,0,20.341,26.64,25.561,31.68
		c-0.181-4.5-0.54-20.7-1.261-28.08c-2.34-1.62-6.066-1.313-6.066-1.313V13.5h13.572v2.777c0,0-2.12-0.375-3.006,0.41
		c-0.917,0.813-0.72,3.06-0.72,3.06l-0.554,35.375c-0.805,0.365-0.9,0.188-1.786,0.085c-9.18-9.72-24.716-29.155-28.98-34.56
		c-0.179,6.12-0.179,28.8-0.179,28.8s0.588,1.689,1.439,2.34c1.113,0.852,3.545,0.593,3.545,0.593v2.056H588.25v-2.078
		c2.634-0.03,5.514-1.11,5.699-3.156V20.062c0,0-1.163-2.311-2.525-3.015c-1.316-0.68-3.78-0.36-3.78-0.36V13.987z"/>
	<path fill-rule="evenodd" clip-rule="evenodd" fill="#FFFFFF" d="M667.744,35.947h12.96l-5.76-17.64L667.744,35.947z
		 M635.453,54.487l0.125-2.587h4.041c0.9-0.025,1.571-0.359,2.205-0.653c0,0,0.54-31.14,0-34.02c-1.8-1.44-6.247-0.666-6.247-0.666
		v-2.794h18.614v2.775c-2.193,0.097-4.268-0.756-5.722,0.271v34.07c0.554,0.293,0.375,0.542,1.814,1.262
		c0.805,0.402,3.24,0.36,3.24,0.36c1.027,0.126,2.52-0.36,4.68-2.88c1.522-2.572,12.942-28.875,14.22-31.68l-0.54-2.88
		c2.881-0.36,5.221-1.8,5.94-3.42h1.44l13.187,37.683c0,0,1.003,1.854,2.113,2.457c1.462,0.795,4.266,0.053,4.266,0.053l0.054,2.647
		h-17.162l-0.054-2.667c0,0,2.063,0.378,3.356-0.574c-0.36-4.86-3.42-12.42-3.42-12.42h-15.301c-0.899,3.42-3.6,9-3.959,12.6
		c0.481,1.025,2.625,0.444,4.803,0.408l0.055,2.652L635.453,54.487z"/>
	<path fill-rule="evenodd" clip-rule="evenodd" fill="#FFFFFF" d="M384.425,31.267c-3.354,0.249-7.56,7.2-9.18,9.9
		c-2.606,4.343-2.16,9.72,1.26,9.72c3.371,0,5.819-2.424,8.46-6.48C390.005,36.667,389.285,30.907,384.425,31.267z M388.925,30.728
		c3.362,2.521,1.394,10.953-1.26,15.479c-3.06,5.22-8.64,8.1-12.6,6.66c-4.621-1.68-3.976-9.761-1.26-14.94
		C376.837,32.143,383.165,26.407,388.925,30.728z"/>
	<path fill-rule="evenodd" clip-rule="evenodd" fill="#FFFFFF" d="M412.505,13.087c4.139,0,7.257,3.661,4.859,4.86
		c-3.96,1.98-2.52-2.88-5.939-3.42c-5.291-0.835-6.66,8.28-8.82,14.94l4.802-0.135v2.263l-6.242,0.032
		c-1.62,9-9.72,35.64-19.62,37.98c-4.645,0.083-6.956-4.461-4.14-5.4c2.7-0.9,3.96,3.06,3.96,3.06
		c7.56,1.08,15.646-30.868,15.66-35.28c-1.644-0.149-4.68,0-4.68,0s0-0.54,0.053-2.478h5.424
		C403.865,14.527,407.588,13.087,412.505,13.087z"/>
	<path fill-rule="evenodd" clip-rule="evenodd" fill="#FFFFFF" d="M217.057,34.468c7.74,1.26,15.3-3.06,14.76-9.54
		c-0.954-11.442-14.76-9-14.76-9V34.468z M205.897,13.408c7.92,0,28.08-2.16,30.78,5.58c0.593,1.699,2.16,6.84,0.72,9.72
		c-1.822,3.644-5.04,5.4-9.18,6.66c3.867,4.414,9,16.56,17.226,16.254v2.785l-11.826-0.319c-3.009-4.784-9.36-20.16-16.92-17.28
		c0,7.263-0.36,11.34,0.18,14.4c0.903,0.872,2,0.971,4.807,1.136v2.053l-16.867,0.052c0,0-0.18,0.18,0-2.52
		c2.88,0,5.04-1.08,5.04-1.08s0.18-27.18,0-33.84c-1.44-1.62-1.08-1.08-3.96-1.08V13.408z"/>
	<path fill-rule="evenodd" clip-rule="evenodd" fill="#FFFFFF" d="M57.542,13.823h12.6c0,0,20.34,26.64,25.56,31.68
		c-0.18-4.5-0.54-20.7-1.26-28.08c-2.34-1.62-6.067-1.313-6.067-1.313v-2.774h13.573v2.777c0,0-2.121-0.375-3.006,0.41
		c-0.917,0.813-0.72,3.06-0.72,3.06l-0.554,35.375c-0.804,0.365-0.9,0.188-1.786,0.085c-9.18-9.72-24.716-29.155-28.98-34.56
		c-0.18,6.12-0.18,28.8-0.18,28.8s0.589,1.689,1.44,2.34c1.113,0.852,3.546,0.593,3.546,0.593v2.056h-13.56v-2.078
		c2.634-0.03,5.514-1.11,5.7-3.156V19.897c0,0-1.164-2.311-2.526-3.015c-1.315-0.68-3.78-0.36-3.78-0.36V13.823z"/>
	<path fill-rule="evenodd" clip-rule="evenodd" fill="#FFFFFF" d="M125.765,13.654c0.9-0.026,0.179,1.211,0.253,1.878
		c2.447-0.104,2.833,0.806,3.374,1.886c1.979,4.005,12.962,35.554,14.065,37.997h1.699c1.232-3.066,13.542-34.249,17.695-39.517
		c1.784-0.11,4.133-0.47,5.033-0.47c1.89,0,3.488,0.333,5.22,1.08l0.18,35.28l-6.352-0.052v2.886h33.607
		c0.969-2.982,2.985-7.875,3.885-10.935c-0.341-0.636-2.537-0.552-3.06,0.18c-0.9,1.26-4.036,5.591-5.07,6.312
		c-1.485,1.08-3.209,1.969-5.549,2.148h-7.561c-3.06-0.72-2.88-1.62-3.2-2.785V34.533h6.215c4.185,0.514,3.942,2.825,4.545,4.654
		h1.62l0.18-12.96h-2.16c0,0,0.72,4.86-2.631,5.366c-2.949,0.214-7.757,0-7.757,0v-15.78c0,0,10.958-0.236,11.288-0.026
		c0.688,0.126,4.68,2.16,8.349,8.652l1.911-0.192c0.293-0.319-1.825-6.667-2.88-10.08h-45v1.62c0,0,2.88-0.9,3.24,1.62
		c-0.655,1.803-10.44,28.98-10.44,28.98c-3.24-9.18-9.18-27.18-9.18-28.44c0-3.42,5.4-2.16,5.4-2.16v-2.16L125.765,13.654z"/>
	<path fill-rule="evenodd" clip-rule="evenodd" fill="#FFFFFF" d="M253.745,13.087c2.622-0.679,10.08-1.62,13.14,1.44l0.54-1.591
		h1.776l0.384,10.771h-1.62c-0.292-2.594-2.916-8.392-7.38-8.82c-3.469-0.333-6.767,0.148-7.92,4.14
		c-2.34,8.1,5.546,9.282,11.52,11.7c7.56,3.06,8.704,7.05,8.46,13.14c-0.36,9-8.182,12.311-15.66,11.34
		c-3.487-0.453-6.12-2.7-8.1-3.96l-0.9,2.34l-1.26-0.72l0.927-11.829l2.069-0.008c0.064,4.097,1.922,9.098,6.544,10.757
		c3.188,1.145,5.94,0.9,8.64-0.9c3.504-2.336,3.42-9.36-0.9-12.06c-8.64-5.4-13.14-3.6-16.38-10.44
		C245.55,24.007,247.528,14.697,253.745,13.087z"/>
	<path fill-rule="evenodd" clip-rule="evenodd" fill="#FFFFFF" d="M295.865,13.987h54.72v1.98c0,0-1.44,0.18-3.78,0
		c0,2.34,10.44,17.64,10.44,17.64l9.903-15.873c0.537-2.847-1.98-1.079-3.423-1.947l0.18-1.98h14.22v1.98l-4.86,0.54l-14.76,19.26
		v15.12c1.34,2.059,3.6,0.72,5.719,1.169v2.764h-17.869c0,0,0.27-0.693-0.041-2.078c1.636-0.152,3.91,0.305,5.53-1.855
		c0.54-2.7,0.18-9.18,0.183-13.86c-5.223-7.92-12.243-19.98-14.763-21.24c-1.08-0.18-1.818-0.4-1.8,0.36
		c0.54,2.16,0.54,3.96,1.26,8.46c-1.44,0-0.72-0.18-2.34-0.18c-2.88-7.56-3.96-6.84-6.48-7.92l-9,0.18l-0.026,32.846
		c0,0,0.207,1.894,1.646,2.074c2.706,0,4.32,0.18,4.32,0.18v2.7l-19.953,0.274l0.333-2.974l5.76-0.18
		c2.7-3.24,0.72-30.681,0.72-35.28l-9.72,0.36c-4.14,1.98-4.731,5.587-6.12,7.92c-1.8,0-0.72,0.18-2.34,0l1.26-5.4L295.865,13.987z"
		/>
	<path fill-rule="evenodd" clip-rule="evenodd" fill="#FFFFFF" d="M776.535,16.113c0,0.533,0,0.621,0.442,0.621h1.687
		c1.686,0,3.372,0.089,3.549,3.106c0.089,0.976,0.267,7.187,0.267,9.405v6.566c0,4.703,0,11.535-0.267,12.777
		c-0.267,1.154-1.064,2.218-2.396,2.218h-2.396c-0.532,0-0.621,0.089-0.621,0.444v1.863c0,0.621,0.089,0.887,0.71,0.887
		c1.508,0,4.702-0.266,7.098-0.266c3.018,0,5.945,0.266,8.962,0.266c6.033,0,10.204-0.887,12.6-2.129
		c2.929-1.331,4.614-5.413,4.614-8.518c0-5.945-3.904-9.317-10.736-11.357v-0.178c5.59-2.041,8.252-3.46,8.252-9.05
		c0-3.283-1.242-5.945-4.614-7.719c-2.041-1.065-5.767-1.508-10.736-1.508c-2.13,0-5.59,0.266-7.542,0.266
		c-1.509,0-7.542-0.267-8.341-0.267c-0.443,0-0.531,0.178-0.531,0.622V16.113z M789.044,33.682c2.84,0,5.413-0.089,8.43,0.976
		c3.371,1.154,5.768,3.904,5.768,8.43c0,5.945-4.525,8.251-8.519,8.251c-4.437,0-5.679-2.484-5.679-6.743V33.682z M789.044,27.116
		c0-3.727,0-8.606,0.089-9.76c0.089-0.621,0.267-1.064,0.799-1.153s1.153-0.089,1.952-0.089c1.686,0,5.058,0.621,6.832,1.952
		c2.218,1.686,2.662,3.904,2.662,5.768s-0.888,4.17-3.283,5.856c-1.774,1.153-4.969,1.508-9.051,1.242V27.116z"/>
	<path fill="#FFFFFF" d="M822.827,18.332v15.528c0.621,0.089,1.508,0.177,2.661,0.177c9.849,0,11.357-6.921,11.357-9.228
		c0-2.662-1.331-5.058-2.928-6.123c-2.396-1.508-4.881-2.307-8.43-2.307C824.157,16.379,822.827,16.734,822.827,18.332z
		 M857.077,35.545h12.066c-0.355-1.242-4.524-14.552-4.703-15.262c-0.177-0.532-0.266-0.887-0.531-0.887
		c-0.267,0-0.444,0.266-0.711,0.976C862.932,21.083,857.519,34.658,857.077,35.545z M889.796,33.504v-5.501v-8.518
		c-0.089-1.775-0.887-2.751-3.372-2.751h-0.887c-0.267,0-0.355-0.266-0.355-0.621v-2.129c0-0.266,0.178-0.443,0.533-0.444
		c0.443,0,5.944,0.267,7.541,0.267c1.065,0,8.784-0.267,9.938-0.266c5.323,0,9.316,1.508,11.534,3.46
		c1.952,1.864,3.105,4.437,3.105,6.478c0,6.122-3.46,9.671-10.47,12.156c2.041,0.621,3.815,3.372,7.454,8.518
		c1.242,1.775,3.282,4.437,4.968,5.679c1.243,0.887,2.396,0.976,3.993,0.976c0.355,0,0.443,0.266,0.443,0.799v1.774
		c0,0.355-0.177,0.621-0.532,0.621c-0.177,0-0.888-0.089-1.774-0.177c-0.798,0-1.863-0.089-2.751-0.089
		c-2.04,0-4.17,0.089-5.679,0.177c-1.686-1.242-5.59-8.429-6.389-9.76c-3.193-5.501-4.524-7.453-8.252-7.453
		c-0.887,0-1.686,0-2.307,0.177v2.13v9.583c0.178,1.242,0.71,2.218,2.484,2.218h2.308c0.354,0,0.532,0.178,0.532,0.444v2.129
		c0,0.444-0.178,0.621-0.71,0.621c-0.621,0-5.413-0.266-8.341-0.266c-1.494,0-3.496,0.061-5.727,0.2
		c-0.73,0.014-1.143,0.018-1.873,0.017c-2.428-0.002-4.746-0.217-6.221-0.217c-1.687,0-6.922,0.266-8.074,0.266
		c-0.621,0-0.711-0.444-0.711-0.798v-1.864c0-0.266,0.09-0.532,0.443-0.532h1.42c1.065,0,1.42-0.798,1.42-1.508
		c-0.354-1.774-2.75-8.873-3.461-10.914h-14.285c-0.354,1.064-3.193,8.429-3.549,9.494c-0.532,1.775-0.266,2.928,1.598,2.928h2.218
		c0.532,0,0.621,0.266,0.621,0.621v1.952c0,0.355-0.089,0.621-0.532,0.621c-0.302,0-5.246-0.202-8.601-0.213
		c-3.014-0.01-4.694,0.117-7.727,0.124c-1.686-1.242-5.59-8.429-6.388-9.76c-3.195-5.501-4.525-7.453-8.253-7.453
		c-0.887,0-1.685,0-2.306,0.177v2.13v9.583c0.177,1.242,0.709,2.218,2.484,2.218h2.307c0.354,0,0.532,0.178,0.532,0.444v2.129
		c0,0.444-0.178,0.621-0.71,0.621c-0.621,0-5.412-0.266-8.341-0.266c-2.218,0-6.743,0.266-7.364,0.266
		c-0.355,0-0.532-0.266-0.532-0.71V51.25c0-0.266,0.177-0.444,0.532-0.444h1.064c2.13,0,3.194-0.355,3.194-2.307
		c0.089-4.348,0-9.583,0.089-14.996v-5.501v-8.518c-0.089-1.775-0.888-2.751-3.372-2.751h-0.887c-0.267,0-0.354-0.266-0.354-0.621
		v-2.129c0-0.266,0.177-0.443,0.531-0.444c0.444,0,5.945,0.267,7.543,0.267c1.064,0,8.784-0.267,9.938-0.266
		c5.323,0,9.316,1.508,11.534,3.46c1.952,1.864,3.106,4.437,3.106,6.478c0,6.122-3.461,9.671-10.471,12.156
		c2.041,0.621,3.815,3.372,7.453,8.518c1.242,1.775,3.283,4.437,4.969,5.679c0.551-0.195,0.898-0.535,1.154-0.887
		c0.621-0.71,5.146-11.357,7.275-15.794c0.621-1.242,5.856-13.309,6.389-14.818c0.178-0.532,0.71-1.508,0.089-1.774
		c-0.178-0.178-0.443-0.621-0.354-0.887c-0.089-0.178,0.088-0.444,0.887-0.621c1.686-0.266,4.17-1.863,4.969-2.573
		c0.178-0.355,0.533-0.621,1.064-0.621c0.533,0,0.711,0.355,0.888,0.976c1.243,3.549,5.768,16.237,6.921,19.787
		c1.331,4.437,5.146,14.907,5.768,15.794c1.154,1.597,2.662,2.396,4.17,2.396h1.223c2.129,0,3.193-0.355,3.193-2.307
		C889.796,44.152,889.708,38.917,889.796,33.504z M896.54,18.332v15.528c0.621,0.089,1.509,0.177,2.662,0.177
		c9.85,0,11.357-6.921,11.357-9.228c0-2.662-1.331-5.058-2.928-6.123c-2.396-1.508-4.881-2.307-8.43-2.307
		C897.871,16.379,896.54,16.734,896.54,18.332z"/>
</g>
</svg>
